<mxfile host="app.diagrams.net" modified="2023-07-09T18:10:54.721Z" agent="Mozilla/5.0 (Windows NT 10.0; Win64; x64; rv:109.0) Gecko/20100101 Firefox/115.0" etag="UoDY7t_JGgsFYBSEH2uy" version="21.6.1" type="github">
  <diagram name="Page-1" id="K0beEtVPf47ITyZFxGnr">
    <mxGraphModel dx="792" dy="1128" grid="1" gridSize="10" guides="1" tooltips="1" connect="1" arrows="1" fold="1" page="1" pageScale="1" pageWidth="850" pageHeight="1100" math="0" shadow="0">
      <root>
        <mxCell id="0" />
        <mxCell id="1" parent="0" />
        <mxCell id="z8xS_-f5tbxmREKYc3Xp-3" style="edgeStyle=orthogonalEdgeStyle;rounded=0;orthogonalLoop=1;jettySize=auto;html=1;" edge="1" parent="1" source="z8xS_-f5tbxmREKYc3Xp-1" target="z8xS_-f5tbxmREKYc3Xp-2">
          <mxGeometry relative="1" as="geometry" />
        </mxCell>
        <mxCell id="z8xS_-f5tbxmREKYc3Xp-1" value="PC Select" style="shape=trapezoid;perimeter=trapezoidPerimeter;whiteSpace=wrap;html=1;fixedSize=1;rotation=90;" vertex="1" parent="1">
          <mxGeometry x="140" y="330" width="120" height="60" as="geometry" />
        </mxCell>
        <mxCell id="z8xS_-f5tbxmREKYc3Xp-5" style="edgeStyle=orthogonalEdgeStyle;rounded=0;orthogonalLoop=1;jettySize=auto;html=1;entryX=0.5;entryY=1;entryDx=0;entryDy=0;" edge="1" parent="1" source="z8xS_-f5tbxmREKYc3Xp-2" target="z8xS_-f5tbxmREKYc3Xp-4">
          <mxGeometry relative="1" as="geometry" />
        </mxCell>
        <mxCell id="z8xS_-f5tbxmREKYc3Xp-2" value="PC" style="whiteSpace=wrap;html=1;aspect=fixed;" vertex="1" parent="1">
          <mxGeometry x="290" y="320" width="80" height="80" as="geometry" />
        </mxCell>
        <mxCell id="z8xS_-f5tbxmREKYc3Xp-6" style="edgeStyle=orthogonalEdgeStyle;rounded=0;orthogonalLoop=1;jettySize=auto;html=1;entryX=0.25;entryY=1;entryDx=0;entryDy=0;" edge="1" parent="1" source="z8xS_-f5tbxmREKYc3Xp-4" target="z8xS_-f5tbxmREKYc3Xp-1">
          <mxGeometry relative="1" as="geometry">
            <mxPoint x="80" y="330" as="targetPoint" />
            <Array as="points">
              <mxPoint x="511" y="250" />
              <mxPoint x="511" y="170" />
              <mxPoint x="80" y="170" />
              <mxPoint x="80" y="390" />
              <mxPoint x="170" y="390" />
            </Array>
          </mxGeometry>
        </mxCell>
        <mxCell id="z8xS_-f5tbxmREKYc3Xp-8" value="PC+4" style="edgeLabel;html=1;align=center;verticalAlign=middle;resizable=0;points=[];" vertex="1" connectable="0" parent="z8xS_-f5tbxmREKYc3Xp-6">
          <mxGeometry x="0.7558" y="2" relative="1" as="geometry">
            <mxPoint as="offset" />
          </mxGeometry>
        </mxCell>
        <mxCell id="z8xS_-f5tbxmREKYc3Xp-4" value="+4" style="shape=trapezoid;perimeter=trapezoidPerimeter;whiteSpace=wrap;html=1;fixedSize=1;rotation=90;" vertex="1" parent="1">
          <mxGeometry x="380" y="230" width="100" height="40" as="geometry" />
        </mxCell>
      </root>
    </mxGraphModel>
  </diagram>
</mxfile>
